<svg xmlns="http://www.w3.org/2000/svg" viewBox="0 0 800 600">
  <defs>
    <!-- Texture for the wall -->
    <pattern id="wallTexture" patternUnits="userSpaceOnUse" width="100" height="100">
      <rect width="100" height="100" fill="#f5f5f5"/>
      <path d="M 0 0 L 100 100 M 100 0 L 0 100" stroke="#efefef" stroke-width="0.5"/>
    </pattern>
    
    <!-- Shadow effect -->
    <filter id="shadow">
      <feGaussianBlur in="SourceAlpha" stdDeviation="3"/>
      <feOffset dx="0" dy="4" result="offsetblur"/>
      <feComponentTransfer>
        <feFuncA type="linear" slope="0.3"/>
      </feComponentTransfer>
      <feMerge> 
        <feMergeNode/>
        <feMergeNode in="SourceGraphic"/> 
      </feMerge>
    </filter>

    <!-- Glow effect for the red elements -->
    <filter id="redGlow">
      <feGaussianBlur stdDeviation="2" result="coloredBlur"/>
      <feMerge>
        <feMergeNode in="coloredBlur"/>
        <feMergeNode in="SourceGraphic"/>
      </feMerge>
    </filter>
  </defs>

  <!-- Background wall -->
  <rect width="800" height="600" fill="url(#wallTexture)"/>
  
  <!-- Central cross -->
  <path d="M 350 50 h 100 v 50 h 50 v 100 h -50 v 50 h -100 v -50 h -50 v -100 h 50 z" 
        fill="#b22222" filter="url(#redGlow)"/>
  
  <!-- Figure silhouette -->
  <path d="M 300 200 q 100 -50 200 0 q 0 100 -100 150 q -100 -50 -100 -150" 
        fill="#000000" filter="url(#shadow)"/>
  
  <!-- Skulls arrangement -->
  <g filter="url(#shadow)">
    <!-- Left group of skulls -->
    <path d="M 200 400 q 25 -30 50 0 q 0 30 -25 40 q -25 -10 -25 -40" fill="#d3d3d3"/>
    <path d="M 150 450 q 25 -30 50 0 q 0 30 -25 40 q -25 -10 -25 -40" fill="#d3d3d3"/>
    
    <!-- Right group of skulls -->
    <path d="M 550 400 q 25 -30 50 0 q 0 30 -25 40 q -25 -10 -25 -40" fill="#d3d3d3"/>
    <path d="M 600 450 q 25 -30 50 0 q 0 30 -25 40 q -25 -10 -25 -40" fill="#d3d3d3"/>
  </g>

  <!-- Red flowers -->
  <g filter="url(#redGlow)">
    <circle cx="250" cy="500" r="15" fill="#ff4136"/>
    <circle cx="550" cy="500" r="15" fill="#ff4136"/>
    <circle cx="400" cy="520" r="15" fill="#ff4136"/>
    <path d="M 250 500 l 5 -10 l 5 10 l -10 0 z" fill="#ff4136"/>
    <path d="M 550 500 l 5 -10 l 5 10 l -10 0 z" fill="#ff4136"/>
    <path d="M 400 520 l 5 -10 l 5 10 l -10 0 z" fill="#ff4136"/>
  </g>
</svg>